<svg width="20" height="21" viewBox="0 0 20 21" fill="none" xmlns="http://www.w3.org/2000/svg">
<path d="M3.30783 12.1678L9.55783 5.91782C9.61588 5.85971 9.68481 5.81361 9.76068 5.78215C9.83656 5.7507 9.91788 5.73451 10 5.73451C10.0822 5.73451 10.1635 5.7507 10.2394 5.78215C10.3152 5.81361 10.3842 5.85971 10.4422 5.91782L16.6922 12.1678C16.8095 12.2851 16.8754 12.4442 16.8754 12.61C16.8754 12.7759 16.8095 12.9349 16.6922 13.0522C16.5749 13.1695 16.4159 13.2354 16.25 13.2354C16.0842 13.2354 15.9251 13.1695 15.8078 13.0522L10 7.2436L4.19221 13.0522C4.13414 13.1103 4.0652 13.1563 3.98933 13.1878C3.91346 13.2192 3.83214 13.2354 3.75002 13.2354C3.6679 13.2354 3.58658 13.2192 3.51071 13.1878C3.43484 13.1563 3.3659 13.1103 3.30783 13.0522C3.24976 12.9941 3.2037 12.9252 3.17227 12.8493C3.14085 12.7734 3.12467 12.6921 3.12467 12.61C3.12467 12.5279 3.14085 12.4466 3.17227 12.3707C3.2037 12.2948 3.24976 12.2259 3.30783 12.1678Z" fill="#0E1C29"/>
</svg>
