<svg width="20" height="21" viewBox="0 0 20 21" fill="none" xmlns="http://www.w3.org/2000/svg">
<path d="M16.6922 8.8024L10.4422 15.0524C10.3841 15.1105 10.3152 15.1566 10.2393 15.1881C10.1634 15.2195 10.0821 15.2357 9.99998 15.2357C9.91785 15.2357 9.83652 15.2195 9.76064 15.1881C9.68477 15.1566 9.61584 15.1105 9.55779 15.0524L3.30779 8.8024C3.19052 8.68512 3.12463 8.52606 3.12463 8.36021C3.12463 8.19436 3.19052 8.0353 3.30779 7.91802C3.42507 7.80075 3.58413 7.73486 3.74998 7.73486C3.91583 7.73486 4.07489 7.80075 4.19217 7.91802L9.99998 13.7266L15.8078 7.91802C15.8659 7.85995 15.9348 7.81389 16.0107 7.78246C16.0865 7.75104 16.1679 7.73486 16.25 7.73486C16.3321 7.73486 16.4134 7.75104 16.4893 7.78246C16.5652 7.81389 16.6341 7.85995 16.6922 7.91802C16.7502 7.97609 16.7963 8.04503 16.8277 8.1209C16.8592 8.19677 16.8753 8.27809 16.8753 8.36021C16.8753 8.44233 16.8592 8.52365 16.8277 8.59952C16.7963 8.67539 16.7502 8.74433 16.6922 8.8024Z" fill="#0E1C29"/>
</svg>
