<svg width="36" height="37" viewBox="0 0 36 37" fill="none" xmlns="http://www.w3.org/2000/svg">
<path d="M11.25 32.3C7.5225 32.3 4.5 29.2775 4.5 25.55V12.05C4.5 8.32255 7.5225 5.30005 11.25 5.30005H24.75C28.4775 5.30005 31.5 8.32255 31.5 12.05V25.55C31.5 29.2775 28.4775 32.3 24.75 32.3H11.25Z" stroke="#4D525F" stroke-width="1.5" stroke-linecap="round" stroke-linejoin="round"/>
<path d="M12.375 18.7998C12.375 15.6933 14.8935 13.1748 18 13.1748C21.1065 13.1748 23.625 15.6933 23.625 18.7998C23.625 21.9063 21.1065 24.4248 18 24.4248C14.8935 24.4248 12.375 21.9063 12.375 18.7998Z" stroke="#4D525F" stroke-width="1.5" stroke-miterlimit="10"/>
<path d="M23.625 11.4873C23.625 10.5558 24.381 9.7998 25.3125 9.7998C26.244 9.7998 27 10.5558 27 11.4873C27 12.4188 26.244 13.1748 25.3125 13.1748C24.381 13.1748 23.625 12.4188 23.625 11.4873Z" fill="#4D525F"/>
</svg>
