<svg width="400" height="21" viewBox="0 0 400 21" fill="none" xmlns="http://www.w3.org/2000/svg">
<g clip-path="url(#clip0_17_18)">
<g clip-path="url(#clip1_17_18)">
<path fill-rule="evenodd" clip-rule="evenodd" d="M247.954 4.94467C247.989 5.38636 247.308 5.10893 247.111 5.31024C247.285 4.82499 247.574 5.07137 247.954 4.94467ZM234.541 5.67231C234.45 5.47851 233.948 5.69935 234.055 5.31024C234.22 5.13247 234.617 5.24765 234.541 5.67231ZM279.617 5.91068C279.987 5.7289 279.987 6.70693 279.617 6.51513V5.91068ZM193.33 7.00039H196.233C195.438 7.19569 194.126 7.50517 193.33 7.00039ZM200.341 7.11957C201.43 6.84214 203.04 7.08051 204.317 7.00039C203.24 7.28233 201.614 7.06098 200.341 7.11957ZM193.691 8.32846C193.899 8.05503 194.615 8.28539 195.023 8.20928C194.818 8.4832 194.102 8.25234 193.691 8.32846ZM198.889 8.20928C198.095 8.65497 197.171 8.27388 195.867 8.32846C196.166 8.06305 197.995 8.28189 198.889 8.20928ZM128.075 8.81372C128.282 8.53579 128.997 8.77065 129.403 8.69453C129.196 8.96846 128.48 8.7376 128.075 8.81372ZM291.581 9.29898C290.229 9.65703 289.99 9.14874 291.581 9.29898ZM299.315 10.7467C297.972 11.1163 297.698 10.6 299.315 10.7467ZM324.212 10.9891C324.458 10.7112 325.213 10.946 325.657 10.8699C325.411 11.1434 324.656 10.913 324.212 10.9891ZM248.439 10.9891C248.439 11.574 247.023 11.0127 246.987 11.2315C246.872 10.7267 248.077 11.208 248.439 10.9891ZM303.408 11.2315C303.451 11.0928 303.621 10.9245 303.651 11.1083C303.975 11.1554 305.121 11.0006 304.841 11.2315H303.408ZM255.691 11.2315C255.266 11.5936 254.859 11.263 254.1 11.3512C254.546 10.9891 254.951 11.3196 255.691 11.2315ZM268.617 11.7127C268.124 12.0823 267.425 11.6131 266.805 11.7127C267.023 11.4744 268.37 11.6441 268.617 11.7127ZM211.577 15.8091C211.088 16.2533 209.769 15.9188 209.284 16.0475C209.963 15.5412 210.968 15.8442 211.577 15.8091ZM215.446 15.7015C215.701 16.0986 214.961 15.9559 214.722 16.0635C214.552 15.5292 215.442 16.0635 215.446 15.7015ZM218.226 15.7015C218.623 15.7601 219.022 15.7601 219.419 15.7015C219.284 16.0751 218.337 16.038 218.226 15.7015ZM209.169 15.8091C208.826 16.5799 208.075 15.7756 207.355 16.1712C207.633 15.5372 208.512 16.0145 209.169 15.8091ZM220.886 16.0635C220.667 15.8402 220.575 16.1612 220.159 16.0635C219.988 15.69 221.056 15.69 220.886 16.0635ZM261.008 16.2063C261.186 16.349 261.544 16.3099 261.489 16.687C261.393 16.6034 261.158 16.4997 261.127 16.687C260.964 16.6309 261.027 16.3645 261.007 16.2063H261.008ZM264.149 16.3059C264.515 16.4877 264.619 16.2649 264.873 16.4291C264.793 16.5483 264.593 16.5523 264.631 16.7912C264.47 16.7656 264.407 16.2884 264.392 16.7912C263.993 16.8463 263.85 16.6835 263.906 16.3059C264.13 16.5268 264.323 16.8928 264.149 16.3059ZM204.329 16.4291C204.82 16.4587 205.306 16.5388 205.781 16.668C205.896 16.2689 206.019 16.8032 206.143 16.7912C205.346 16.9299 205.188 16.691 204.206 16.9104C204.226 16.7697 204.429 16.8102 204.571 16.7912C204.491 16.668 204.294 16.664 204.329 16.4291ZM264.996 16.5483C265.123 16.2729 265.755 16.4997 266.082 16.4291C266.093 16.4527 265.154 17 264.996 16.5483ZM241.671 16.7912C240.162 17.1608 239.908 16.646 241.671 16.7912ZM243.846 16.9104C244.29 16.6309 245.252 16.8693 245.902 16.7912H247.954C246.823 17.0726 245.174 16.8302 243.846 16.9104ZM175.806 18.591C181.866 18.0667 188.073 18.1939 194.176 18.1052C188.646 18.4127 182.17 18.591 175.806 18.591ZM205.415 18.0001C204.714 18.2855 202.993 18.0391 204.572 18.0001C204.853 17.9901 205.124 18.0041 205.415 18.0001ZM131.233 18.3621C131.328 18.0116 132.425 18.0276 132.684 18.2384C132.418 18.599 131.052 18.7277 130.99 18.2384C130.755 18.2895 130.894 18.7062 130.505 18.604C130.432 18.0702 129.971 18.8469 129.781 18.4813C129.877 18.1939 131.14 17.9079 131.233 18.3621ZM286.504 18.3621C286.409 17.9004 287.075 18.2054 287.35 18.1193C287.175 18.4813 286.59 18.3096 286.504 18.3621ZM126.381 18.3621C126.381 18.8629 125.542 18.4888 125.188 18.6045C125.581 18.2289 125.789 18.5514 126.381 18.3621ZM175.687 18.591C159.969 18.9255 147.373 19.3322 134.601 19.3146C138.926 18.9896 143.723 19.0212 147.893 18.8294C156.076 18.4598 164.632 18.6791 174.478 18.4673C174.947 18.4713 175.389 18.1313 175.687 18.591ZM294.603 18.7237C294.325 19.256 294.145 18.5434 293.636 18.8414C293.613 18.3286 294.392 18.7062 294.603 18.7237ZM296.536 18.7237C296.817 18.902 296.759 18.9781 297.14 18.8414C297.14 19.1519 296.743 19.0838 296.412 19.0838C296.498 18.9801 296.539 18.8584 296.536 18.7237ZM297.864 19.207C297.494 19.2951 297.633 18.8744 297.26 18.9666C297.575 18.7668 297.784 18.941 298.349 18.8414C298.206 18.9881 298.044 19.1113 297.864 19.207ZM272.606 19.207C272.852 18.929 273.613 19.1639 274.057 19.0838C273.811 19.3637 273.056 19.1288 272.606 19.207ZM132.545 19.207C132.433 19.6567 131.575 19.3637 131.093 19.4458C131.332 19.0642 132.027 19.4829 132.545 19.207ZM275.024 19.3261C275.231 19.0487 275.947 19.2831 276.352 19.207C276.145 19.4824 275.429 19.252 275.024 19.3261ZM279.151 19.3261C278.932 19.7253 278.249 19.3066 277.561 19.4458C277.402 19.1989 278.701 19.3867 279.151 19.3261ZM122.997 19.569C123.244 19.2911 124.002 19.526 124.448 19.4458C124.202 19.7253 123.443 19.4909 122.997 19.569H122.997ZM125.9 19.569C126.185 19.2911 126.981 19.526 127.49 19.4458C127.185 19.7253 126.385 19.4909 125.9 19.569ZM279.255 19.569C280.749 19.2756 282.316 19.53 283.363 19.569C282.019 19.8369 281.115 19.4418 279.255 19.569ZM91.9387 20.0498C92.109 19.7763 92.7815 20.0072 93.1321 19.9306C92.9793 20.2065 92.3083 19.9752 91.9387 20.0498ZM87.8308 20.2927C87.997 20.0187 88.6736 20.2496 89.0242 20.1735C88.8734 20.4489 88.1964 20.2185 87.8308 20.2927ZM83.9652 20.4158C84.9468 20.5726 80.8804 20.5195 82.8755 20.4158C83.2366 20.3591 83.6042 20.3591 83.9652 20.4158ZM42.1614 20.4158C42.0422 20.7348 40.7277 20.6798 40.3501 20.6547C40.9336 20.4624 41.548 20.3814 42.1614 20.4158ZM79.6109 20.6547C79.9375 20.3768 80.7808 20.6157 81.3046 20.535C80.9801 20.815 80.1408 20.5801 79.6109 20.6547ZM76.5947 20.7779C76.8406 20.5 77.5963 20.7348 78.04 20.6547C77.7936 20.9342 77.0389 20.6998 76.5947 20.7779ZM370.495 27.9081C370.506 27.8415 370.548 27.8064 370.616 27.8064C370.685 27.8064 370.726 27.8415 370.737 27.9081C372.123 27.8004 371.099 28.2541 370.495 27.9081ZM372.909 28.2701C373.463 28.0433 374.321 28.3347 375.088 28.5125C375.777 28.4244 375.777 28.7158 375.088 28.6317C374.369 28.4711 373.641 28.3504 372.909 28.2701Z" fill="#3F6028"/>
<mask id="mask0_17_18" style="mask-type:luminance" maskUnits="userSpaceOnUse" x="9" y="4" width="373" height="24">
<path d="M9.15942 4.20502H381.156V27.7418H9.15942V4.20502Z" fill="white"/>
</mask>
<g mask="url(#mask0_17_18)">
<path fill-rule="evenodd" clip-rule="evenodd" d="M209.765 5.31025C210.416 5.04033 211.096 4.88559 211.8 4.84452C212.5 4.80316 213.201 4.87985 213.875 5.07138C214.382 4.69779 215.581 4.74687 215.808 5.07138C216.334 4.47895 217.398 5.14399 218.107 4.829C217.209 5.57617 218.993 4.3813 218.711 5.07138C219.813 4.81748 220.867 4.98124 222.218 4.94818C222.381 4.98925 222.319 5.25166 222.338 5.43394C222.338 4.59814 224.263 4.7629 224.151 5.07138C224.549 5.09141 224.549 4.75088 224.998 4.829C224.787 5.68383 226.192 4.57059 226.45 5.31425C226.815 5.41441 227.213 4.82098 227.054 5.31425C227.129 5.20659 227.848 4.94468 227.293 4.94869C227.44 4.58261 227.778 5.01279 227.778 5.19106C227.952 5.16352 227.817 4.829 228.02 4.829C228.994 5.22812 230.505 5.51757 231.641 4.94818C231.514 5.51757 232.095 4.7058 232.007 5.31375C232.434 5.31375 231.749 4.91714 232.126 4.94818C232.76 5.01329 232.391 4.99326 232.731 5.43394C233.061 5.09491 232.995 5.43394 233.093 4.94818C233.224 5.18355 233.324 5.44546 233.817 5.31375C233.946 5.49604 233.987 5.69736 233.94 5.9147C234.736 6.05341 234.971 5.56064 235.996 5.79551C235.853 5.43745 235.336 5.61723 234.664 5.55263C234.664 5.07538 235.133 5.05585 235.511 4.94818C235.564 5.20258 235.429 5.27119 235.391 5.43394C235.487 5.35132 235.722 5.24765 235.754 5.43394C236.049 5.43394 235.777 5.03632 235.63 5.07138C236.25 5.11244 236.35 6.41547 237.324 5.67582C236.997 5.14399 236.585 6.03037 236.234 5.31425C236.712 5.46098 237.293 5.14399 237.686 5.55263C237.639 4.98574 238.58 5.75645 238.776 5.19106C238.653 5.83257 239.538 5.19107 239.499 5.67632C239.81 5.41792 239.635 5.63326 240.104 5.43344C240.319 5.52158 240.104 5.65279 240.104 5.79551C240.843 5.13598 241.244 5.90668 242.037 5.9147C244.82 5.94224 241.321 6.06142 242.16 5.55263C242.04 5.62524 243.412 5.55263 243.245 5.55263C243.611 5.52959 243.989 5.86362 244.093 5.43344C244.417 5.43344 245.309 5.9833 246.145 5.55263C247.197 6.51113 248.529 5.13598 249.047 6.03839C249.337 6.08697 248.979 5.49003 249.408 5.67582C249.46 5.91119 249.753 5.47851 249.65 6.03789C250.076 5.56064 250.447 6.03789 251.098 5.79551V6.15707C251.168 5.99883 251.289 5.9207 251.462 5.9207C251.635 5.9207 251.757 5.99883 251.825 6.15707C251.939 6.05742 252.019 5.93823 252.068 5.79551C252.244 5.8521 252.068 5.90318 252.068 6.03789C252.434 6.08296 252.271 5.5977 252.549 5.55263C254.374 6.09448 256.053 6.3003 257.261 5.9147C257.404 5.93473 257.365 6.13754 257.385 6.28026C257.385 5.63325 258.975 6.80108 259.318 5.79551C259.568 5.86362 259.572 5.98731 259.441 6.15707C260.589 5.81103 261.231 6.19814 262.825 6.03789C262.801 6.13404 262.702 6.15707 262.702 6.28076C263.553 5.99532 265.852 6.03388 267.537 6.39995C267.727 6.14956 268.494 6.47207 268.385 5.9147C268.725 6.14155 268.555 6.31182 269.106 6.15707C268.948 6.10249 268.463 5.75995 268.864 5.55263C269.11 5.76396 269.37 5.68383 269.225 6.28076C271.008 6.46455 273.083 6.34086 274.546 6.51914C274.701 6.07495 274.57 6.05742 274.304 5.79551C275.02 5.79551 274.94 7.20772 275.751 6.39995C275.791 5.90668 275.501 6.33735 275.27 6.28076C275.313 6.12202 275.482 6.09047 275.513 5.9152C275.444 5.96665 275.366 6.00398 275.282 6.02504C275.199 6.0461 275.112 6.05047 275.027 6.03789C275.824 5.70737 276.102 5.92671 276.841 6.15707C277.271 6.15707 276.583 5.75995 276.96 5.79551C277.453 5.76396 277.234 5.84058 277.203 6.15707C277.568 5.86412 277.6 6.09097 277.688 5.79551C278.193 6.03388 278.627 5.68384 279.501 6.03789C279.151 6.4916 279.629 6.31582 279.259 6.64233C279.366 6.75 279.617 6.64233 279.983 6.76152C280.28 6.64634 279.816 6.3003 279.983 5.9152C280.253 6.26875 280.475 5.96377 281.072 6.03789C281 6.28828 280.818 6.43501 280.707 6.64233C281.12 6.84821 281.575 6.95471 282.036 6.95332C282.504 6.95332 282.946 6.84965 283.367 6.64283C282.866 6.58774 282.089 6.70693 281.072 6.64283C281.062 6.52515 281.087 6.41347 281.146 6.31182C281.203 6.21029 281.289 6.12836 281.393 6.07695C281.496 6.0244 281.613 6.00395 281.728 6.01823C281.843 6.0325 281.951 6.08086 282.039 6.15707C281.577 6.26474 282.174 6.40396 282.762 6.51914C282.709 5.9833 282.508 6.34136 282.158 6.15707C282.297 5.87563 282.952 6.07494 283.005 6.28076C283.005 6.07544 283.191 5.9793 283.729 6.03789C283.12 6.50362 284.037 6.15707 283.971 6.88521C284.184 6.63482 284.345 6.77754 284.456 6.64233C284.456 6.24521 284.099 6.59926 283.852 6.28076C284.574 6.19468 285.305 6.19468 286.027 6.28076C285.896 6.50562 285.857 6.74649 285.912 7.00039C286.094 6.78906 286.17 6.54267 286.142 6.26474C286.459 6.22568 286.452 6.51513 286.504 6.74599C286.647 6.74599 286.606 6.52715 286.628 6.38443C286.738 6.51513 287.072 6.42349 286.99 6.74599C287.203 6.22969 287.629 6.31532 288.181 6.38443V7.11958C288.277 6.20214 288.889 6.46455 289.374 6.88121C289.629 6.84214 289.247 6.46055 289.012 6.51563C290.333 6.41948 290.54 6.61479 292.03 6.51563C292.342 6.51563 292.226 6.96934 292.396 7.11958C292.312 6.72246 293.013 6.41147 293.363 6.88121C293.537 6.59175 293.545 6.58374 293.725 6.51563C294.087 6.59576 293.609 6.77354 293.725 7.00039C293.817 6.91626 294.122 6.4916 294.087 7.00039C294.56 6.51513 294.194 6.83413 294.934 6.75801C294.888 6.91626 294.718 6.94931 294.691 7.11958C295.264 6.61529 296.385 7.09253 297.109 7.11958C297.782 6.95686 298.478 6.91649 299.165 7.00039C299.073 7.22725 298.803 7.08452 299.041 7.36246C299.136 7.36246 299.407 6.96534 299.165 7.00039C299.455 6.94931 300.302 6.71895 300.251 7.48565C301.215 6.64233 302.97 7.5167 304.48 7.24277C304.625 7.40152 304.529 7.43457 304.48 7.60484C304.806 7.38599 306.227 7.35044 307.136 7.72402C307.729 7.36997 308.969 7.3269 309.192 8.20978C309.589 8.0275 308.942 7.91582 309.073 7.60484C309.331 7.82768 309.746 7.46612 309.435 7.9669C313.013 7.40903 315.546 8.32847 319.588 8.20928C319.801 8.29742 319.588 8.42862 319.588 8.57135C320.382 8.01748 321.802 8.57135 322.847 8.45166C322.326 8.90186 323.189 8.42061 323.331 8.81373C323.25 8.71063 323.207 8.58287 323.208 8.45166C323.535 8.63595 323.789 8.69855 323.936 8.45166C324.112 8.55532 324.402 8.54781 324.298 8.93291C324.697 8.23282 325.63 9.02906 325.988 8.69454C326.207 8.78267 325.988 8.91338 325.988 9.0561C327.058 8.31294 327.236 9.16377 328.406 8.81373C328.406 8.98399 328.386 9.15626 328.529 9.17579C328.709 9.12471 328.482 9.02105 328.529 8.81373C328.609 8.83526 328.67 8.88233 328.717 8.95094C328.762 9.01904 328.779 9.09366 328.768 9.17579C328.768 8.82524 331.913 8.89385 331.79 9.53736C331.952 9.5023 331.894 9.23438 331.913 9.05661C332.391 9.32653 333.023 9.02155 333.504 9.17579C333.531 9.17579 333.662 9.52984 333.746 9.53736C333.682 9.53736 336.287 9.00953 336.646 9.66105C336.861 9.69209 336.892 9.54587 336.765 9.53736C336.947 9.60246 338.559 9.27545 338.578 9.89942C339.055 9.6295 341.039 9.55739 341.843 10.1418C343.779 9.99262 345.726 10.0741 347.643 10.3847C347.692 10.3847 347.342 10.6075 347.277 10.5039C347.508 10.8775 347.616 10.4002 347.762 10.3847C349.48 10.1894 352.675 11.2045 354.411 10.9891C354.411 11.1318 354.189 11.0928 354.046 11.1083C356.769 10.9731 359.075 11.5505 362.021 11.7128C361.94 11.8158 361.898 11.9439 361.902 12.0748C363.668 11.4548 366.614 12.6307 368.547 12.5601C368.498 12.6362 368.458 12.7175 368.427 12.8025C371.982 12.861 376.917 14.6393 381.115 15.7015C378.938 16.2609 376.452 15.2122 374.834 15.7015C375.785 16.0636 376.498 16.5483 377.371 16.4291C377.618 16.8733 378.23 16.2063 378.218 16.9104C377.618 16.5683 376.841 16.8538 375.8 16.668C377.087 17.6345 379.636 16.977 380.873 17.7572C378.392 18.2014 375.069 16.9184 372.778 17.2724C372.578 17.7692 373.383 17.1803 373.021 17.5148C372.762 17.9435 372.531 17.5774 371.827 17.7572C373.498 18.3892 375.804 18.1543 377.025 18.9491C375.239 19.0016 375.904 18.7823 373.279 18.7062C374.519 19.522 376.579 19.5024 378.11 20.0343C379.562 20.0343 377.51 20.3728 377.267 20.0343C376.729 20.183 376.737 20.8305 376.074 20.52C376.074 20.6582 376.047 20.7349 375.951 20.7624C375.896 21.0203 376.125 20.9928 376.313 21.0008C375.155 21.6328 373.564 20.9186 372.205 20.8816C371.207 20.858 369.82 20.9812 368.701 21.0008C370.691 21.4975 373.429 21.3628 375.462 21.7284C375.593 22.6829 376.655 22.7225 377.395 23.057C377.437 23.3755 376.79 23.8532 377.514 23.7846C377.117 24.0621 376.189 23.8237 375.581 23.9038C376.241 24.5728 377.614 24.5318 378.723 24.7506C378.439 25.0972 379.004 24.8543 379.451 24.9895C377.645 25.1928 375.681 24.3966 373.406 24.3851C374.308 25.4587 376.71 25.0286 377.88 25.8363C377.066 25.8762 376.251 25.7946 375.462 25.5939C375.405 25.9911 375.72 25.9911 376.066 25.9595C375.9 26.1103 375.878 26.5484 376.185 26.5605C375.577 27.0021 374.431 26.0106 374.373 27.0452C373.497 26.8584 372.609 26.7375 371.716 26.6836C372.512 27.2801 373.576 27.1078 374.499 27.4073C375.069 27.3467 374.789 27.6266 374.376 27.5305C373.159 27.2195 370.896 27.208 369.302 27.0452C369.302 27.1649 369.45 27.1414 369.545 27.1649C362.559 26.9886 353.641 25.1768 346.221 24.5082C346.248 24.377 346.458 24.4241 346.464 24.2659C345.564 24.6395 344.951 23.8923 344.527 24.3851C344.22 24.3851 344.378 24.2969 344.407 24.1462C343.834 24.0956 343.576 24.3615 342.956 24.2659C343.461 23.8687 342.817 24.1777 342.594 24.1462C335.17 22.9979 326.072 22.5677 317.805 22.106C306.986 21.5351 295.03 20.3573 284.321 19.6882C284.071 19.6181 283.525 19.841 283.478 19.569H284.445C298.819 20.6622 313.901 21.2707 328.183 22.5913C332.422 22.9904 336.741 22.7144 340.511 23.677C341.305 23.2798 344.689 23.8843 345.463 23.9193C343.392 23.2929 341.24 22.9713 339.075 22.9648C339.572 22.5677 340.268 22.9648 341.127 22.8416C337.15 22.2858 332.379 21.9828 328.799 21.7559C329.568 21.3313 328.474 21.5742 327.956 21.3939C328.255 21.9122 326.819 21.3433 325.9 21.5136C325.833 20.7699 324.151 21.4079 323.607 20.7914C323.169 21.0929 321.409 21.0654 320.824 20.5491C319.507 20.9732 317.686 20.5956 316.231 20.3062C316.277 20.7033 316.697 19.9837 316.592 20.5491C315.773 20.3142 315.456 20.6157 314.175 20.4294C314.028 20.4043 312.393 19.9486 311.88 20.5491C311.086 19.7528 308.973 20.6763 308.615 19.7017C308.31 20.2887 306.659 20.0112 305.716 19.7017C305.773 20.1539 305.045 19.7017 304.386 19.8249C304.118 19.6492 304.541 19.526 304.267 19.4594C303.987 19.7178 304.016 19.6532 303.543 19.3402C303.594 19.4453 303.645 19.553 303.781 19.5826C303.239 19.7919 302.588 19.7373 302.453 19.0973C304.286 19.4458 305.292 19.3948 307.406 19.4594C307.463 19.7178 307.236 19.6882 307.044 19.7017C307.386 20.191 307.483 19.4263 307.768 19.4594V19.8249C310.397 19.3221 312.776 20.0954 315.141 19.9446C315.21 20.195 315.507 19.7643 315.264 20.187C318.083 19.8074 319.83 20.5841 322.756 20.4294C322.756 20.5996 322.756 20.7699 322.876 20.7914C323.054 20.7349 322.827 20.6352 322.876 20.4294C323.122 20.6723 323.87 20.4805 324.445 20.5491C324.445 20.5491 324.227 20.7464 324.085 20.6662C324.45 20.8696 324.351 20.5761 324.812 20.5491C325.799 20.4885 328.136 21.1475 329.28 20.9086C329.245 20.9852 328.979 21.3743 329.28 21.3944C329.46 21.3393 329.234 21.2391 329.28 21.0283C333.785 21.1395 339.222 21.8846 344.024 22.118C342.399 21.5506 339.996 22.118 338.948 21.1515C338.879 21.165 338.846 21.2041 338.846 21.2727C338.846 21.3428 338.879 21.3824 338.948 21.3939C331.532 21.0574 325.03 20.2025 318.044 19.8034C318.064 19.7259 318.112 19.6588 318.179 19.6156C318.245 19.5698 318.326 19.5503 318.406 19.561C318.326 19.4378 318.128 19.4338 318.163 19.199C318.048 19.4749 318.099 19.5335 317.801 19.8034C315.673 19.5495 313.539 19.4278 311.395 19.4378C311.361 19.4074 311.335 19.3702 311.317 19.3288C311.299 19.2874 311.29 19.2426 311.291 19.1975C311.291 19.1033 311.326 19.0232 311.395 18.9566C311.098 18.7708 311.041 19.3557 311.276 19.3186C307.436 19.199 303.042 18.7177 300.143 18.7142C300.282 17.8513 301.137 18.7142 301.471 18.2284C298.249 17.5854 294.28 17.6736 291.319 17.2644C291.773 18.1974 293.367 17.331 293.737 18.1097C293.803 18.0977 293.838 18.0587 293.838 17.9881C293.838 17.92 293.803 17.8809 293.737 17.8669C295.069 17.8378 296.395 17.9179 297.713 18.1097C298.572 18.2134 299.77 17.8513 300.131 18.5945C299.821 18.5945 299.982 18.5044 300.008 18.3521C299.859 18.9666 298.203 18.4523 296.747 18.3521C293.312 18.1097 289.775 17.9039 286.595 17.8669C286.02 17.8669 285.423 17.5539 284.781 17.5068C282.228 17.3195 279.178 17.3701 276.687 17.2644C273.957 17.1493 270.969 17.0376 269.552 16.66C269.46 16.973 268.597 16.9104 267.862 16.9024C267.465 16.7346 268.288 16.7832 268.467 16.7832C268.388 16.66 268.189 16.656 268.224 16.4216C270.919 16.7541 272.725 16.699 275.959 16.7832C275.959 16.8578 275.791 16.9299 275.716 16.9024C276.606 17.2078 278.651 17.0686 280.071 17.1452C282.146 17.2504 284.161 17.0261 285.262 17.1452C273.51 16.0185 253.056 15.4786 240.792 15.5743C228.286 15.6684 219.261 15.2478 206.596 15.6935C206.463 16.0515 207.314 15.7836 207.323 15.8167C206.714 16.7231 204.417 15.7365 203.455 16.2979C203.66 16.4682 204.063 16.1908 203.94 16.9024C201.951 16.969 199.413 16.8027 198.138 16.9024C198.138 16.056 199.851 16.9925 199.59 16.1787C200.205 16.1787 200.953 16.2533 200.675 16.7832C201.184 16.3295 201.772 16.3525 202.731 16.1787C199.493 16.0105 195.525 15.8993 192.941 16.2979C193.244 16.66 194.666 16.6425 195.724 16.66C196.297 16.6662 196.869 16.5858 197.418 16.4216C197.669 16.4877 197.673 16.6069 197.537 16.7832C197.934 16.8418 197.792 16.1827 198.142 16.5408C198.073 16.6505 197.803 16.7226 198.019 16.7832C197.712 16.9224 196.321 17.1157 196.209 16.66C194.992 17.0962 193.009 17.2389 192.34 16.66C192.197 16.68 192.236 16.8813 192.221 17.0256C189.29 17.1042 186.387 16.8989 183.871 17.5073C183.871 17.3916 184.018 17.4152 184.11 17.3876C183.31 17.2067 182.475 17.2481 181.697 17.5073C180.785 16.9925 176.407 17.7477 174.805 17.2644C173.866 17.8669 172.656 17.0341 171.663 17.7477C171.886 17.3075 170.368 17.8844 169.85 17.8669C169.648 17.7928 169.775 17.5894 169.973 17.6245C169.263 17.3506 167.588 17.8473 166.953 17.3876C166.761 17.4387 166.849 17.7652 166.467 17.6245C166.467 17.8964 166.98 17.6771 167.195 17.7477C167.103 18.27 165.929 17.28 165.501 17.7477C165.429 18.0351 166.225 17.4031 166.105 17.9901C160.395 18.1744 151.948 18.0156 144.717 18.3521C144.059 18.3852 143.228 18.7513 142.903 18.2289C142.303 18.5244 140.417 18.8214 140.366 18.2289C140.104 18.7823 138.114 18.6516 137.582 18.1097C137.154 18.1097 137.837 18.5084 137.459 18.4713C136.665 18.1468 135.689 18.8098 134.922 18.1097C135.241 18.4753 134.048 18.6125 133.832 18.2289C133.702 18.3855 133.516 18.4852 133.314 18.5069C133.214 18.518 133.114 18.5107 133.017 18.4853C132.919 18.4586 132.827 18.4134 132.747 18.3521C132.858 17.8433 134.337 18.2855 134.803 18.1097C134.044 17.4858 132.123 17.963 130.828 17.9901C129.634 18.0156 128.576 17.7362 127.925 18.2289C128.183 18.4092 128.656 18.1819 128.652 18.4713C128.791 18.4713 128.75 18.2545 128.772 18.1097C129.169 18.5595 128.942 18.258 129.619 18.2289C129.192 18.9451 128.38 18.3366 127.805 18.5945C127.825 18.2935 127.614 18.2209 127.563 17.9901C125.915 17.9119 123.717 18.3892 121.399 18.2289C120.386 18.1623 119.411 17.7477 118.377 17.7477C116.197 17.7477 113.801 17.8083 112.093 17.7477C106.976 17.5734 99.7946 18.0937 95.5359 18.2284C81.0743 18.6942 61.4752 19.6727 45.1447 20.8891C45.1447 20.2145 43.717 20.6427 42.3614 20.5275C42.3614 20.3848 42.5802 20.4259 42.7229 20.4078C36.8978 20.1184 28.3455 21.3668 22.4202 21.6012C22.7622 20.9382 25.1119 21.2356 26.1661 20.8776C26.131 20.7153 25.8631 20.7774 25.6853 20.7584C25.7821 20.6695 25.8965 20.602 26.0211 20.5601C26.1456 20.5183 26.2776 20.5031 26.4084 20.5155C24.8184 20.2691 20.687 21.2396 18.793 20.3963C18.793 20.5115 18.9458 20.4885 19.0359 20.5155C17.1024 20.0699 15.107 19.9575 13.1357 20.183C13.1357 19.7839 13.4452 19.7839 13.7401 19.6977C12.348 19.4378 10.0944 19.3186 9.14746 18.2465C9.19053 17.1492 9.38183 16.8928 9.63222 15.9519C10.1645 15.9479 10.6067 15.7466 10.9608 15.3474C25.7359 12.4289 42.3729 11.1359 58.5722 10.0306C64.1845 9.63351 69.8768 9.14023 75.8532 8.83726C95.6516 7.78462 115.22 6.95332 134.703 6.05341C137.571 5.92271 140.474 6.02236 143.285 5.93022C149.973 5.70336 157.821 5.4705 164.689 5.42944C179.421 5.34731 196.878 4.27764 207.352 4.82499C208.373 4.93667 209.871 4.67476 209.765 5.31025ZM280.702 6.26474C280.583 6.26474 280.56 6.16508 280.464 6.14155C280.499 6.38042 280.302 6.38443 280.221 6.50361C280.344 6.50361 280.464 7.02793 280.583 6.62681C280.511 6.62681 280.44 6.60677 280.464 6.50361H280.702V6.26474ZM284.814 6.62681C285.291 6.53116 285.442 6.67788 285.662 6.50361C285.307 6.53466 285.288 6.23319 284.934 6.26474C284.939 6.40396 284.9 6.52915 284.814 6.63833V6.62681ZM230.552 5.7915C230.611 5.84165 230.681 5.87535 230.757 5.88915C230.832 5.90457 230.91 5.89986 230.983 5.8755C231.056 5.85115 231.121 5.808 231.172 5.75044C231.224 5.69422 231.26 5.62453 231.276 5.54912C231.066 5.6603 230.675 5.59419 230.552 5.7915ZM263.183 6.63833C262.216 6.60327 261.219 6.9458 261.127 6.51513C261.096 6.37241 260.701 6.75 260.642 6.75801C260.403 6.80108 259.814 6.41147 259.449 6.39595C259.41 6.39595 259.449 6.6834 259.206 6.63833C258.242 6.52878 257.268 6.52878 256.303 6.63833C255.221 6.6834 253.48 6.59526 252.437 6.51513C250.225 6.35905 248.007 6.31926 245.791 6.39595C245.791 6.26073 245.964 6.21016 245.791 6.15357C245.018 6.44102 243.92 6.19864 243.253 6.27676C241.821 6.44102 239.853 6.02236 239.022 6.03388C217.678 6.31182 199.656 6.18061 176.665 6.63833C175.473 6.66186 175.197 6.19814 174.13 7.00039C179.583 6.63482 188.265 7.00039 192.496 7.11958C180.642 7.62837 167.696 7.80465 154.069 8.31294C151.286 8.42061 148.247 8.52828 145.607 8.43613C141.102 8.27789 135.076 8.94893 130.381 8.7982C129.081 8.75513 126.516 8.26587 125.184 8.7982C125.4 8.8648 125.896 8.65147 125.912 8.91739C122.095 8.94894 118.146 9.39063 115.638 8.91739C115.239 9.56089 114.047 9.2444 113.825 9.04058C113.825 9.70762 112.87 8.77867 112.496 9.16026C112.643 9.16026 112.782 9.19532 112.739 9.40264C112.312 9.14023 110.086 9.77222 109.355 9.16026C108.916 9.84884 107.764 9.39062 106.818 9.40264C103.979 9.4377 100.344 10.3456 97.8756 9.76471C97.2226 10.4393 96.1639 9.92296 95.2154 9.88389C94.6811 9.86386 94.1373 10.2344 93.6445 10.2495C93.8638 10.2495 93.2023 9.99908 93.4021 10.0071C92.7816 9.97955 91.9268 10.273 90.9843 10.3692C89.9026 10.4763 88.6622 10.1889 88.0848 10.6115C83.433 10.4353 76.71 11.1238 70.1918 11.4548C68.1241 11.562 65.2682 11.4974 63.7853 12.0593C64.2678 11.9189 64.7852 11.9628 65.2371 12.1825C69.2414 11.251 74.0609 11.7834 78.6481 11.3352C78.8484 11.3156 79.0477 11.224 79.253 11.216C88.7168 10.7853 97.823 9.92696 105.239 10.2495C105.438 10.2495 105.558 10.0381 105.84 10.0071C106.006 10.0071 108.515 10.3456 109.466 9.88389C110.872 10.281 114.726 9.65704 117.442 9.88389C117.463 9.74468 117.422 9.54136 117.565 9.52183C118.361 10.1849 119.951 9.45723 121.068 9.76471C121.939 9.0561 123.772 9.83482 125.419 9.28346C125.384 9.51782 125.581 9.52183 125.662 9.64502C126.004 9.27144 126.663 9.07613 126.747 9.64502C128.441 9.2479 131.352 8.84878 133.396 9.16026C134.132 9.27945 134.421 9.16026 135.329 9.04058C137.252 8.75513 139.519 9.14825 141.733 9.04058C145.01 8.88233 148.278 8.671 151.039 9.04058C156.013 8.64346 163.195 8.31294 166.992 8.67901C171.039 7.7125 175.589 8.94443 178.351 8.07457C179.31 8.30606 180.315 8.2632 181.25 7.95088C181.381 8.348 181.743 8.00596 182.097 8.31294C184.439 7.75157 186.395 8.28941 189.832 7.95088C190.313 8.48321 191.024 8.05854 191.645 8.43663C180.761 8.43663 167.731 9.35357 155.857 9.6295C141.992 9.96803 130.589 9.76822 116.34 10.3531C110.166 10.6075 103.359 11.1709 97.8506 10.9576C94.9045 11.4388 87.911 11.0437 83.711 11.9241C83.711 11.6852 83.5918 11.6737 83.3494 11.6817C80.6497 11.7929 77.6039 12.1024 75.1316 12.4093C76.5458 12.8901 78.2279 11.8635 79.3607 12.5285C91.2893 11.6286 101.096 11.3627 113.557 10.8384C114.098 11.3707 114.683 10.7893 115.49 10.7152C115.49 10.905 115.49 11.1359 115.732 11.0773C118.076 11.0046 120.245 10.7933 122.619 10.8384C129.4 10.9536 136.227 10.1072 143.527 10.1108C148.695 10.1108 154.028 9.66505 159.237 9.86837C169.126 10.2655 178.05 9.33804 186.791 9.6295C189.223 9.16778 191.959 9.36358 194.161 9.50631C198.703 9.08765 207.14 9.25992 210.352 9.26743C210.171 9.26743 209.955 9.59244 210.352 9.50631C210.603 9.37109 210.46 9.50631 210.595 9.26743C212.981 9.24039 215.284 9.47676 218.091 9.50631C219.149 9.19131 220.875 9.2479 222.561 9.26743C224.075 9.26743 225.434 9.37109 227.154 9.38712C233.578 9.44972 240.458 9.38712 248.179 9.6295C248.521 9.6295 248.995 9.49078 249.507 9.50631C250.97 9.55338 251.945 9.52984 252.53 9.50631C253.115 9.48277 253.535 9.50631 253.862 9.50631C255.364 9.43369 257.262 9.54937 258.936 9.6295C261.798 9.7607 264.797 9.97203 267.997 10.1108C273.199 10.3376 278.932 10.3411 284.075 10.7152C284.392 10.7387 285.092 10.5159 285.266 10.9576C286.187 10.7933 287.129 10.7933 288.05 10.9576C288.05 11.1008 287.834 11.2315 288.05 11.3196C288.551 10.6311 291.35 11.2475 292.027 11.3196C292.5 10.9205 293.41 11.4428 293.359 11.4388C298.997 11.6522 306.524 12.2721 310.64 12.2862C312.549 12.2862 314.724 12.8065 314.867 12.1665C315.176 12.4053 317.005 12.7749 316.199 12.2862C316.485 12.3603 317.074 12.1334 317.166 12.4093C316.982 12.4093 316.72 12.3643 316.68 12.5285C318.846 12.7419 321.829 13.0493 323.57 12.8906C324.791 12.7829 326.019 13.2877 327.316 13.3759C328.429 13.442 329.58 13.172 330.7 13.2522C331.821 13.3308 333.007 13.7529 333.842 13.7379C334.143 13.7379 334.423 13.5066 334.689 13.6177C334.824 13.6688 334.801 13.9743 334.928 13.9803C334.902 13.9803 334.959 13.6338 335.051 13.6182C336.295 13.3989 337.977 14.0659 339.28 14.2207C339.218 14.2207 339.426 13.9663 339.642 13.9803C343.318 14.1696 347.651 15.077 351.243 14.8251C350.599 14.6238 349.918 14.8662 349.19 14.5827C349.365 14.5161 349.814 14.723 349.795 14.4595C349.317 14.4886 348.601 14.119 348.204 14.4595C348.451 14.5317 348.999 14.3128 349.048 14.5827C347.127 15.0675 345.99 13.3909 345.182 14.3399C343.834 13.9427 343.416 13.8882 341.436 13.7374C341.436 13.5772 341.648 13.6262 341.675 13.495C339.533 13.2602 338.537 13.5456 336.962 13.2522C337.107 13.2722 337.305 13.2522 337.324 13.3754C336.839 13.0448 336.132 13.5221 334.908 13.2522C334.908 13.2522 334.805 12.9417 334.67 12.8906C333.738 12.54 331.917 13.3874 333.077 12.7709C332.375 12.6868 332.179 12.8415 331.989 13.0138C332.052 12.5601 331.46 13.2837 331.747 12.6482C331.297 12.8633 330.795 12.9473 330.3 12.8906C330.3 12.6988 330.3 12.4915 330.057 12.5285C330.008 12.7339 330.235 12.8375 330.057 12.8906C330.057 12.4209 329.01 12.4093 328.725 12.6477C328.975 12.7223 329.519 12.4995 329.572 12.7709C328.295 12.8535 326.184 12.4289 325.595 12.6477C325.53 12.4759 326.068 12.3523 325.718 12.2862C322.641 12.4013 319.901 11.8359 315.685 11.6817C315.315 11.5936 315.538 12.0984 315.082 11.9241C315.71 11.3707 314.513 11.8164 314.358 11.8049C314.397 11.8049 314.505 11.6096 314.235 11.562C313.073 11.4148 311.903 11.3339 310.732 11.3196C297.213 10.5549 283.59 9.41066 271.457 8.78268C272.758 8.7336 276.674 9.27544 278.705 8.78268C280.583 9.20684 282.616 8.988 284.145 9.14424C285.382 9.26743 286.778 9.50981 287.649 9.38712C288.023 9.33003 287.939 9.10318 288.253 9.14424C288.281 9.14424 288.015 9.38712 288.011 9.38712C288.805 9.81128 290.264 9.23037 291.518 9.50631C291.816 9.57291 291.988 9.8233 292.242 9.86837C294.302 10.2259 296.671 9.32653 298.404 10.3531C298.881 9.70762 300.532 10.4237 301.065 10.1108C300.985 10.1232 300.903 10.1042 300.837 10.0577C300.77 10.0134 300.722 9.94599 300.702 9.86837C301.348 10.0697 302.365 9.89541 302.754 10.3531C302.854 10.0031 303.948 10.0186 304.206 10.2339C303.836 10.3081 303.165 10.0777 303.013 10.3531C303.543 10.269 303.694 10.5584 304.206 10.4728C306.066 9.87188 307.899 10.5274 311.094 10.7152C322.688 11.3978 334.497 12.3327 346.383 13.133C346.303 13.1433 346.222 13.1246 346.155 13.0804C346.087 13.036 346.038 12.9683 346.017 12.8901C346.184 12.9297 346.252 13.0604 346.503 13.0138C346.618 12.5716 345.957 12.9101 346.017 12.5285C348.756 12.5285 350.788 13.1956 353.271 12.8906C347.728 12.1374 339.873 11.562 334.184 10.9576C334.327 10.9576 334.525 10.936 334.546 11.0773C331.632 10.588 326.362 11.0167 323.065 9.99156C323.065 10.5625 322.168 9.93848 321.475 10.2339C321.475 10.0502 321.518 9.78424 321.356 9.74868C321.336 9.89942 321.356 10.0777 321.233 10.1108C320.039 10.3807 317.527 9.91144 316.397 9.50631C316.322 9.77222 316.743 9.90343 316.277 9.86837C316.039 9.62149 316.039 9.7567 316.277 9.50631C315.892 9.63951 315.493 9.72164 315.086 9.74868C315.086 9.58843 315.295 9.63751 315.329 9.50631C313.736 9.9505 312.449 9.50631 310.736 9.38712C309.797 9.71163 307.598 9.01354 306.87 9.26743C306.864 9.13509 306.907 9.00516 306.99 8.90186C306.173 9.17441 305.306 9.2573 304.452 9.14424C303.736 8.99751 304.118 9.00552 303.486 9.02505C302.246 9.06412 301.029 8.62593 299.979 8.78268C299.916 8.6064 300.452 8.48721 300.102 8.42061C300.102 8.72959 299.65 8.61441 299.498 8.78268C294.743 8.23116 289.963 7.92161 285.176 7.85523C285.231 7.61635 284.85 7.23526 284.814 7.49316C284.953 7.49316 284.945 7.68496 284.934 7.85523C282.15 7.21923 279.668 7.81617 277.08 7.36997C276.618 7.29585 276.782 7.18818 276.594 7.25078C275.947 7.46612 275.358 7.13911 274.661 7.12759C272.766 7.09604 270.665 7.12759 269.345 7.0084C269.282 6.83413 269.814 6.71494 269.464 6.64634C268.885 7.07701 267.477 7.073 267.291 6.64634C266.307 7.27432 264.654 6.69141 263.183 6.63833ZM278.531 6.51513C278.297 6.20965 277.735 6.36089 277.442 6.15357V6.51513C277.819 6.38443 277.784 6.44102 277.926 6.75801C278.439 6.60327 279.255 6.86919 279.012 6.39595C278.985 6.58374 278.813 6.39595 278.77 6.27676C279.02 6.41197 279.347 6.08646 279.012 6.03388C278.754 6.09097 278.562 6.16508 278.531 6.51513H278.531ZM276.475 6.8807C276.67 6.54268 277.017 6.58374 277.322 6.63833C277.179 5.99081 276.413 6.68339 276.129 6.15357C276.067 6.56421 276.32 6.66186 276.475 6.88121L276.475 6.8807ZM170.853 6.75801C170.853 7.21973 171.862 6.87319 171.943 6.63833C171.575 6.6024 171.204 6.64315 170.853 6.75801ZM122.882 8.93291C123.236 8.87833 124.492 9.10317 124.075 8.69454C123.916 8.92139 123.181 8.45166 122.882 8.93291ZM316.354 13.4224C312.346 12.9141 307.806 13.1235 304.513 12.4559C302.943 12.6637 302.185 12.3528 300.886 12.3327C300.956 12.3327 301.029 12.3327 301.006 12.2135C300.055 12.2721 299.072 12.3327 298.222 11.9712C298.233 12.0502 298.214 12.1304 298.171 12.1969C298.127 12.2635 298.06 12.3119 297.983 12.3332C295.996 11.9361 293.713 12.1414 291.334 11.6091C291.234 12.2331 291.009 11.2866 290.849 11.852C287.725 11.4548 284.735 11.3312 281.669 11.1238C281.143 11.0888 280.579 11.2706 280.078 11.247C279.578 11.224 279.097 10.905 278.627 10.8855C276.121 10.7738 273.537 11.1008 271.012 10.7623C270.487 10.6687 269.954 10.6286 269.421 10.6426C267.862 10.7307 266.718 10.3727 265.313 10.281C265.313 10.281 265.255 10.5194 265.07 10.5194C260.669 10.5194 251.397 9.86437 245.491 10.0386C244.55 10.0657 243.484 9.74117 242.592 9.79576C236.231 10.1929 227.821 9.6921 221.567 9.67657C221.225 9.65304 221.333 10.0737 220.843 9.91495C220.444 9.55338 218.457 9.64953 218.183 9.67657C217.267 9.76471 215.507 9.35958 215.16 10.0381C216.078 10.1223 216.859 9.66105 217.821 10.1578C217.463 10.0151 216.997 10.238 216.369 10.1578C216.898 10.9541 218.102 10.2009 218.788 10.1578C218.504 9.97955 218.265 10.1969 218.183 10.0381C218.504 9.91294 218.827 9.91294 219.15 10.0381C219 10.0381 218.862 10.0732 218.907 10.281C222.647 9.98355 226.989 10.281 231.475 10.281C231.475 10.4197 231.455 10.6231 231.595 10.6426C231.864 10.4688 231.444 10.3496 231.718 10.281C234.544 10.242 237.615 10.4473 239.33 10.281C239.28 10.6781 240.64 10.281 241.142 10.281C242.036 10.281 242.852 10.5915 244.044 10.4002C244.192 10.4237 244.116 10.5354 244.044 10.6426C244.443 10.7893 244.136 10.2455 244.525 10.4002C246.029 10.3201 247.146 10.5154 248.151 10.5194C248.729 10.5194 249.623 10.0737 250.084 10.7623C249.564 10.5039 249.902 10.6195 249.722 10.8855C245.405 10.4473 242.275 10.8464 238.968 11.0046C239.102 10.8304 239.098 10.7112 238.848 10.6426C238.952 11.0397 238.66 11.0202 238.486 11.1238C238.466 10.9461 238.529 10.6781 238.363 10.6431C238.179 11.4393 237.42 10.4197 237.52 11.1238C236.346 10.7818 234.859 11.0557 234.136 10.8855C234.228 10.8579 234.374 10.8855 234.374 10.7623C233.977 10.6231 234.084 10.9541 233.893 11.0046C231.622 11.0046 229.566 10.9696 227.61 10.8855C220.517 10.57 213.693 11.4508 204.646 10.7623C202.878 11.2475 200.201 11.0087 198.241 11.0046C197.676 11.0046 196.782 11.212 196.551 11.1238C196.452 11.0888 196.635 10.7583 196.428 10.7623C196.46 10.7623 196.385 11.1043 196.309 11.1238C195.335 11.3903 193.251 11.0322 191.473 11.1238C186.46 11.3903 181.104 11.2901 178.543 11.7283C182.017 11.6246 184.904 11.7283 188.212 11.6091C190.65 11.521 194.55 11.7323 196.19 11.4859C198.492 11.1474 201.037 11.6091 202.835 11.6091C203.748 11.6091 204.937 11.4549 205.975 11.4859C207.264 11.529 208.688 11.3667 210.206 11.3667C212.615 11.3667 215.589 10.893 218.063 11.3667C218.599 11.4704 218.38 11.3392 218.907 11.247C219.552 11.2059 220.198 11.2059 220.843 11.247C224.714 11.247 231.276 11.4704 235.102 11.4859C236.192 11.4859 236.43 11.3472 237.277 11.3667C238.314 11.3938 239.176 11.3667 239.695 11.6091C247.107 11.3196 255.059 11.9066 263.377 12.0903C265.505 12.1374 269.167 12.2135 271.839 12.3327C273.903 12.4289 276.321 12.2646 278.003 12.5756C278.216 12.6147 278.5 12.9337 278.727 12.9372C279.124 12.9372 279.204 12.5796 279.574 12.6948C279.668 12.7263 279.497 13.0569 279.693 13.0604C279.693 13.0604 279.72 12.7148 279.816 12.6948C280.114 12.6442 280.168 12.8981 280.658 12.9372C280.933 12.9607 281.454 12.7068 281.851 12.6948C283.044 12.6713 284.427 13.0098 284.873 13.2992C284.762 12.826 285.513 13.2111 285.601 12.9377C295.613 13.8882 307.113 14.0269 318.107 15.2363C323.105 14.8977 329.527 16.1908 334.666 16.0791C332.183 15.7285 330.773 15.8402 328.017 15.4746C328.68 15.5372 329.607 15.3434 330.072 15.5978C329.603 15.2202 328.128 15.2007 327.535 15.3554C327.674 15.375 327.878 15.3354 327.898 15.4746C326.049 15.2478 324.067 15.3394 322.457 14.8737C322.641 14.8507 322.903 14.9133 322.942 14.751C322.349 14.5357 322.545 14.8467 322.095 14.9934C320.963 14.1971 318.737 15.2553 317.017 14.751C316.874 14.7059 316.704 14.4085 316.536 14.3889C316.369 14.3689 316.207 14.6278 316.05 14.6313C314.957 14.6313 313.081 14.2657 312.076 14.2697C311.495 14.44 309.184 14.4085 308.815 13.9042C307.621 14.3323 305.303 13.7039 303.86 13.9042C303.873 13.6943 303.793 13.5336 303.617 13.4224C303.57 13.6297 303.797 13.7314 303.617 13.7845C301.653 13.8431 299.016 13.2562 297.575 13.4224C296.606 13.4578 295.637 13.4166 294.675 13.2992C293.148 13.164 290.221 12.9412 289.108 12.8185C287.995 12.6948 286.047 12.7614 285 12.3327C283.568 12.7709 282.217 12.1374 280.164 12.3327C280.026 12.2566 279.847 12.2726 279.679 11.9712C279.679 12.1139 279.705 12.3132 279.56 12.3327C276.075 11.8359 272.559 12.2095 268.928 11.7283C269.325 11.4098 270.88 12.1254 271.465 11.4859C269.317 11.1203 267.338 11.844 265.663 11.3667C265.466 11.3116 265.716 11.1359 265.54 11.1238C265.513 11.1238 265.378 11.3707 265.178 11.3667C264.454 11.3667 263.619 11.1474 263.003 11.247C262.745 11.2866 262.606 11.57 262.399 11.6091C262.193 11.6482 261.708 11.3196 261.432 11.3667C261.342 11.3667 261.469 11.6286 261.189 11.6091C261.189 11.6091 261.331 11.4018 261.189 11.3667C261.051 11.3317 260.11 11.6562 259.861 11.3667C260.069 11.3938 260.161 11.2315 259.861 11.247C259.861 11.3156 259.768 11.3822 259.742 11.247C259.603 10.9015 259.603 11.4428 259.742 11.4859C259.047 11.2395 257.035 11.541 255.767 11.247C255.732 10.9245 256.237 11.57 256.129 11.0046C255.063 10.7893 252.279 11.0437 250.084 10.7623C254.983 10.3005 263.377 10.8975 268.093 11.0046C269.998 11.0477 271.423 11.0652 273.048 11.1238C274.435 11.1789 276.297 11.1669 276.309 11.6096C276.309 11.4664 276.289 11.2671 276.432 11.247C276.995 11.7478 279.186 11.0167 280.296 11.7283C283.232 11.5405 287.056 11.848 289.724 11.9712C290.344 11.9987 292.197 12.2331 292.019 12.4564C292.588 11.8089 293.521 12.5325 294.075 12.5756C294.007 12.5756 294.233 12.3367 294.437 12.3327C295.971 12.313 297.506 12.3941 299.03 12.5756C299.928 12.6908 301.137 13.1525 301.812 13.0609C301.896 13.0609 301.784 12.7984 302.054 12.818C303.682 12.9332 305.395 12.9216 307.129 13.0609C307.805 13.1114 308.484 13.499 309.184 13.5416C309.184 13.5416 309.239 13.2992 309.427 13.2992C310.198 13.2992 311.553 13.5536 312.326 13.4224C312.346 13.5456 312.326 13.7925 312.449 13.7845C313.423 13.7374 315.336 13.5847 315.953 13.5421C315.972 14.1581 316.008 13.6773 316.315 13.6653C316.62 13.6533 317.277 13.8806 317.766 13.9037C320.648 14.0544 322.573 14.0038 324.525 14.1466C325.468 14.2167 326.673 14.4811 326.577 14.6313C331.682 14.4771 339.047 15.7956 343.496 15.4746C336.111 14.782 331.289 14.3163 323.316 13.9037C323.455 13.6573 323.126 13.3268 323.073 13.6653C322.365 13.8195 318.564 13.4735 316.549 13.2997C316.796 13.438 317.125 13.1114 316.792 13.0609C316.72 13.2076 316.43 13.1996 316.354 13.4224ZM200.945 10.5199C205.435 10.5199 209.99 10.266 214.118 10.6431C214.483 10.6431 214.406 10.2049 214.842 10.2815C214.871 10.4127 215.041 10.571 215.084 10.4007C214.687 10.2149 215.36 9.6926 214.842 9.67707C214.734 10.5319 212.854 10.254 211.577 9.91545C200.337 10.3967 182.991 9.85285 169.163 11.0051C178.979 10.8058 189.971 10.5164 200.945 10.5044V10.5199ZM213.875 9.79626C213.636 9.79626 213.159 9.51081 213.148 10.0386C213.47 10.0191 213.86 10.0917 213.875 9.78074V9.79626ZM166.864 10.6396C166.804 11.0697 167.95 10.9135 168.058 10.7588C167.547 10.7432 167.266 10.4282 166.864 10.6396ZM109.705 11.4709C110.749 12.1905 111.988 11.7448 113.208 11.7133C118.658 11.578 125.215 11.4749 129.889 10.9896C130.07 10.9621 129.889 10.7898 129.765 10.7472C122.67 11.1128 115.832 11.3026 109.705 11.4709H109.705ZM152.729 11.3517C155.356 11.2676 157.15 11.4869 159.01 11.1088C156.913 11.0439 154.814 11.1251 152.729 11.3517ZM161.428 10.9896H159.861C160.119 11.3902 161.225 11.4353 161.428 10.9896ZM150.673 11.3517C150.308 11.4278 149.63 11.1964 149.48 11.4709C149.83 11.3943 150.505 11.6251 150.673 11.3517ZM106.579 11.7133C106.483 11.6897 106.34 11.7133 106.336 11.5941C106.479 11.5941 106.678 11.6136 106.698 11.4709H105.127C105.069 11.7408 105.808 11.8014 105.251 11.7133C105.262 12.4138 106.409 11.9952 106.579 11.7133ZM160.112 11.9561C160.712 12.488 161.329 12.2336 161.702 12.1985C164.157 11.9521 168.275 12.0222 169.918 11.9561C172.776 11.841 175.46 12.0868 178.498 11.5941C173.48 11.5335 166.279 11.8324 160.096 11.9561H160.112ZM100.172 11.9561C101.123 11.5861 101.896 12.179 102.471 11.7133C102.07 11.6937 100.145 11.6021 100.157 11.9561H100.172ZM104.404 11.8364C104.427 11.7408 104.503 11.6937 104.646 11.7133C105.636 11.6331 103.239 11.3357 103.453 11.9561C103.856 11.899 104.007 11.6446 104.388 11.8324L104.404 11.8364ZM130.99 11.9561C131.933 11.7253 132.557 12.1264 133.408 11.7133C132.889 11.7057 131.391 11.5059 130.974 11.9561H130.99ZM98.4845 11.9561C98.8812 11.8324 99.7946 12.2215 99.8106 11.7133C99.2432 11.9326 98.8541 11.5705 98.4665 11.9561H98.4845ZM44.2057 13.4234C50.7945 12.9652 57.4665 12.492 63.6621 11.9712C57.3553 12.3493 49.1765 12.4018 44.2057 13.4234ZM90.6107 12.4569C93.8713 12.1534 95.0352 12.3372 98.3428 12.0913C96.0252 11.6977 92.4942 11.9912 90.6107 12.4409V12.4569ZM153.091 12.4569C154.971 12.179 158.386 12.5721 159.734 12.0913C156.765 12.1865 155.401 11.9211 153.103 12.4409L153.091 12.4569ZM77.3185 13.0453C82.7214 12.815 85.994 12.8736 90.4911 12.1985C86.1873 12.6036 82.4745 12.3533 77.3185 13.0453ZM68.1321 12.803C70.0571 12.7539 71.9601 12.5916 74.1766 12.5606C72.6567 12.2301 69.2644 12.488 68.1321 12.803ZM288.316 14.3739C288.392 14.3739 288.461 14.3739 288.439 14.4931C283.048 14.094 277.827 14.1626 272.001 13.5266C271.64 13.812 270.479 13.6853 269.583 13.6498C262.185 13.3273 253.034 13.0258 245.417 12.803C245.483 12.803 245.556 12.8986 245.417 12.9221C243.214 12.9221 241.87 12.8656 239.977 12.9221C239.989 12.8429 239.971 12.762 239.926 12.6953C239.882 12.6284 239.816 12.5802 239.738 12.5601C239.738 12.7033 239.738 12.9026 239.615 12.9221C234.445 12.6232 223.482 12.9807 217.745 12.6798C217.745 12.8696 217.71 12.9146 217.506 12.9221C212.77 13.1335 207.833 12.4604 203.848 13.2842C205.108 13.2431 207.203 13.5426 207.825 13.5266C210.85 13.4585 214.067 13.0458 215.92 13.5266C217.201 13.3879 219.372 12.9807 221.24 13.2842C221.295 13.2842 221.137 14.2056 221.36 13.5266C221.391 13.4309 221.36 13.2922 221.483 13.2842C224.304 13.1311 227.132 13.2122 229.939 13.5266C230.994 13.1004 233.654 13.2116 233.566 13.6498C233.566 13.1375 233.837 13.5656 233.928 13.6498C234.086 13.5346 234.259 13.4485 234.445 13.3879C234.63 13.3293 234.82 13.2977 235.015 13.2977C235.406 13.2968 235.787 13.4201 236.103 13.6498C236.103 13.5071 236.103 13.3037 236.223 13.2842C236.223 13.5697 236.792 13.2527 237.189 13.2842C237.373 13.466 237.228 13.9748 237.674 13.8887C237.789 13.6658 237.312 13.4895 237.674 13.4074C237.794 13.8045 237.913 13.2722 238.036 13.2842C238.295 13.8321 239.468 12.9772 239.003 13.5266C239.797 13.0298 240.45 13.6087 241.178 13.5266C241.058 13.5266 241.027 13.3153 241.178 13.2842C242.203 13.6262 243.854 13.1881 245.771 13.5266C245.634 13.5541 245.583 13.6618 245.528 13.7695C246.815 13.0614 248.983 13.5501 249.757 13.5266C249.757 13.6618 249.584 13.7169 249.757 13.7695C250.157 12.9497 251.019 14.0349 251.086 13.4074C251.205 13.5306 251.328 13.6498 251.452 13.7695C251.536 13.6733 251.637 13.6012 251.753 13.5501C251.868 13.4975 251.989 13.472 252.117 13.472C252.244 13.472 252.365 13.497 252.481 13.5501C252.596 13.6012 252.696 13.6733 252.78 13.7695C252.753 13.3723 253.519 13.5972 254.108 13.5266C254.147 13.6658 254.255 14.3208 254.351 14.0118C254.466 13.785 253.989 13.6127 254.351 13.5266C254.34 13.606 254.36 13.6865 254.406 13.7519C254.451 13.82 254.513 13.8651 254.593 13.8887C254.642 13.6813 254.415 13.5777 254.593 13.5266C254.991 13.4229 254.844 13.8396 255.074 13.8887C255.472 13.1295 256.912 13.9588 257.735 13.6498C257.756 13.8261 257.717 13.9863 257.616 14.131C257.921 13.9237 258.036 14.2703 258.22 14.0118C258.077 13.9923 258.089 13.82 258.097 13.6498C258.728 13.7284 258.944 13.9162 259.548 13.6498C259.278 14.5046 259.603 13.47 260.029 14.0118C260.272 13.2472 261.297 14.3814 261.119 13.7695H261.604C261.743 14.0825 261.231 14.2898 261.724 14.2542C261.724 14.0704 261.679 13.8045 261.843 13.7695C262.833 13.7695 263.218 14.104 263.899 13.8887C263.652 14.3208 264.458 14.4896 264.141 14.2542C263.997 14.2312 264.01 14.0589 264.018 13.8887C264.877 13.5656 264.535 14.767 264.746 14.131C264.885 13.6969 265.54 13.7319 265.832 14.2542C265.945 13.8556 266.013 14.2312 266.074 13.8887C266.403 14.0314 266.375 13.9472 266.796 13.8887C266.865 14.0664 266.657 14.5166 266.919 14.4931C267.254 14.3128 266.71 14.0003 267.038 13.8887C267.172 14.1235 267.735 13.9197 267.766 14.2542C268.2 13.8045 269.083 14.1666 269.699 14.131C269.674 14.2778 269.695 14.419 269.762 14.5537C269.828 14.6889 269.928 14.7906 270.061 14.8592C269.957 14.4816 269.707 14.3364 270.061 14.0118C269.991 14.4971 270.419 13.9513 270.785 14.131C270.67 15.041 270.841 14.6438 271.027 14.131C271.381 14.098 271.426 14.3579 271.632 14.4931C271.724 13.9923 271.927 14.3544 272.236 14.131C272.271 14.448 271.767 14.2272 271.874 14.6168C272.228 14.2738 272.861 14.086 273.067 14.4931C273.128 13.8846 273.41 14.6709 273.672 14.6163C273.596 13.82 274.689 14.5322 275.362 14.3739C274.965 14.6869 276.102 14.6594 275.485 14.3739C276.279 14.456 276.876 14.1821 277.056 14.7355C277.017 13.9883 277.51 14.6123 277.661 14.7355C277.553 14.409 278.812 14.3364 278.989 14.7355C278.966 14.1235 279.926 15.1326 279.351 14.4931C279.91 14.3699 280.395 14.7159 280.679 14.4931C280.646 14.771 280.71 14.9488 280.922 14.9784C281.608 14.1821 281.716 15.0975 282.512 14.6163C282.512 14.7515 282.336 14.8021 282.512 14.8587C283.255 14.5166 283.703 14.6478 284.568 14.9784C284.638 14.3894 285.558 15.3439 285.415 14.7355C285.573 14.7355 285.524 14.9448 285.658 14.9784C286.197 14.724 287.672 14.7435 288.674 14.9784C288.555 14.9784 288.524 15.1877 288.674 15.2207C289.867 14.6674 291.354 15.4556 293.51 15.2207C293.76 15.3324 293.613 15.8407 293.995 15.8252C293.995 15.6609 294.206 15.7135 294.233 15.5828C293.955 15.3399 294.102 15.6139 293.871 15.702C293.878 15.5706 293.836 15.4415 293.752 15.3399C294.795 15.3795 295.78 15.1521 296.894 15.702C297.645 15.4221 299.546 15.5102 300.159 15.9444C300.518 15.7623 300.919 15.6787 301.32 15.702C301.73 15.7235 302.107 15.8427 302.453 16.0641C302.334 15.6294 303.089 15.8287 302.696 16.0641C302.923 15.8602 306.424 15.8372 306.802 16.4296C307.066 15.8447 308.791 16.2183 309.101 16.4296C309.101 16.7621 308.869 16.8267 309.22 16.6685C309.439 17.0656 308.953 15.9914 309.581 16.1872C309.546 16.2574 309.284 16.651 309.581 16.668V16.3064C311.244 16.3415 312.985 16.6119 313.559 16.5488C314.468 16.4492 315.546 16.7506 316.824 16.6685C316.735 16.8658 317.062 17.1963 317.062 16.9109C317.459 16.7546 321.002 16.7702 321.655 17.1533C325.44 17.0771 328.59 17.5975 332.168 17.7577C332.217 17.8989 332.299 18.0201 332.41 18.1198C332.345 17.4938 333.785 17.8734 334.223 18.1198C334.223 17.613 335.055 18.0512 335.071 18.0006C334.916 18.1628 334.701 18.239 335.071 18.3626C335.058 18.2829 335.077 18.2014 335.123 18.1353C335.167 18.0671 335.235 18.0185 335.314 18.0001C337.269 18.2214 339.055 18.2585 341.594 18.605C341.234 17.967 341.086 18.3782 340.403 18.2395C340.004 18.1593 339.656 17.8403 339.21 17.7577C337.818 17.5624 336.088 17.6505 334.617 17.5153C334.331 17.513 334.047 17.5531 333.774 17.6345C332.617 17.4272 330.797 17.324 330.024 16.9109C329.83 17.4507 328.621 17.0731 328.334 16.9109C328.421 17.3961 327.142 17.1322 327.848 16.9109C322.537 16.7957 316.378 16.1948 310.205 15.8252C309.257 15.7646 308.242 15.8252 307.913 15.8252C306.95 15.8252 304.237 15.7175 303.801 15.4596C303.86 15.4947 304.071 15.4065 304.044 15.3399C298.788 15.2909 293.538 14.9683 288.316 14.3734L288.316 14.3739ZM65.7144 13.0453C66.4615 12.6482 67.7015 13.3308 68.0129 12.6798C67.4471 12.834 66.2562 12.5681 65.7144 13.0453ZM64.3858 13.0453C65.9372 13.0218 63.9887 12.7874 63.0577 12.9221C62.3145 13.0298 61.4672 13.1124 60.7591 13.2842C61.976 13.3077 63.1849 13.2276 64.3858 13.0453ZM349.587 13.4229C350.188 13.5151 350.268 13.3799 350.781 13.5426C350.777 13.4074 350.816 13.2862 350.9 13.1805C350.769 13.1853 350.64 13.143 350.538 13.0614C350.458 13.4585 350.141 13.0043 349.692 13.0614C349.701 13.1941 349.666 13.3153 349.587 13.4229ZM55.4443 13.5426C54.5209 13.6052 53.355 13.4465 52.5448 14.0274C54.3701 13.7089 56.8705 13.6658 58.9458 13.5426C59.4996 13.5111 60.401 13.5191 60.5383 13.1805C59.0494 13.4229 57.0463 13.4229 55.4443 13.5266V13.5426ZM355.752 13.9042C356.419 14.0003 358.22 13.793 359.135 14.5086C359.071 13.7124 360.329 14.779 360.587 14.1471C358.805 14.1075 357.322 13.3077 355.752 13.8887V13.9042ZM46.8624 14.3739C48.7033 14.6749 50.5166 14.5542 52.3024 14.0118C50.4815 14.3133 48.1259 14.131 46.8624 14.3739ZM362.035 14.7355C362.308 14.6478 362.975 14.9548 362.881 14.4931C362.428 14.6749 362.189 14.3659 362.035 14.7355ZM325.9 14.9784C325.671 14.9979 325.071 14.7024 324.935 15.0975C325.309 14.7745 325.675 15.5417 325.9 14.9784ZM372.79 15.4591C371.052 15.3559 369.259 15.0605 367.592 15.0975C369.108 15.3559 371.084 15.8097 372.79 15.4596L372.79 15.4591ZM374.723 15.8252C374.55 15.3519 373.594 15.6649 373.132 15.4596C373.445 15.9679 374.408 15.6179 374.722 15.8097L374.723 15.8252ZM345.842 15.8252C345.706 15.6414 344.378 15.4867 343.907 15.702C344.549 15.7921 345.194 15.8272 345.842 15.8097V15.8252ZM346.08 15.9444C346.706 15.8958 347.119 16.2654 347.774 15.9444C347.178 15.8723 346.299 15.6374 346.08 15.9444ZM343.787 16.7917C340.816 16.5273 337.993 16.2498 335.436 16.0641C338.187 16.5936 340.986 16.8374 343.787 16.7917ZM349.353 16.1872C349.11 16.1342 348.459 15.8838 348.267 16.1872C348.666 16.0721 349.083 16.5568 349.345 16.2068L349.353 16.1872ZM345.849 17.0341C345.536 16.9344 344.658 16.7586 344.4 17.0341C344.901 17.0341 346.8 17.2514 345.842 17.0341H345.849ZM288.316 17.3996C288.678 17.3666 289.052 17.7367 289.163 17.2769C288.932 17.2689 288.468 17.0005 288.316 17.3996ZM290.734 17.3996C290.29 17.3195 289.817 17.2689 289.405 17.1573C289.224 17.7973 290.552 17.5268 290.734 17.3996ZM135.323 18.0006C136.516 18.1318 138.338 17.9205 140.035 17.8774H140.775C141.174 17.7367 140.45 17.7402 140.29 17.7577C138.172 17.8403 135.992 17.5934 134.975 18.0006H135.323ZM301.853 18.4813C302.211 18.0121 302.985 18.8023 303.181 18.3626C303.208 18.4528 303.181 18.599 303.304 18.605V18.3626C303.062 18.0982 301.626 17.9079 301.853 18.4813ZM305.599 18.605C306.166 19.0021 306.659 18.5404 306.686 18.9671C307.176 18.7633 307.209 18.8519 307.533 18.4813C306.847 18.7437 305.936 18.1944 305.599 18.5915V18.605ZM312.97 19.0843C312.827 19.2681 312.453 19.1449 312.246 18.8419C312.248 18.9786 312.207 19.0998 312.123 19.2075C312.385 19.2681 313.146 19.4383 312.97 19.0843ZM349.83 24.1587C348.637 24.008 347.174 23.73 345.599 23.9158C346.919 23.8728 348.737 24.3775 349.83 24.1587H349.83Z" fill="#3F6028"/>
</g>
<path fill-rule="evenodd" clip-rule="evenodd" d="M272.606 5.7915C272.51 5.81504 272.486 5.9147 272.363 5.91069C272.443 6.03388 272.643 6.03789 272.605 6.27626C272.367 6.27626 272.455 5.94575 272.125 6.03388C272.206 5.92872 272.246 5.80703 272.244 5.67232H272.729C272.832 5.80302 273.306 5.75645 273.814 6.03388C273.711 6.21417 273.417 6.21016 273.21 6.27676C273.525 5.84058 272.644 6.57222 272.606 5.7915ZM243.484 5.07138C243.238 5.47051 242.26 4.93617 242.156 5.19107C242.06 4.88559 243.201 5.00528 243.484 5.07138ZM246.625 5.42944C246.442 5.32578 246.657 5.24765 246.506 4.94468C246.612 5.02881 246.733 5.06988 246.868 5.06787C246.973 4.98374 247.094 4.94268 247.23 4.94468C247.103 5.4705 246.749 5.03232 246.625 5.42944ZM258.474 5.18656C258.654 5.23964 258.431 5.3418 258.474 5.54913C258.768 5.60171 258.74 5.32978 259.079 5.42944C258.964 5.67632 258.617 5.69185 258.236 5.67232C258.371 5.49805 258.363 5.37886 258.112 5.31025C258.12 4.88208 258.505 5.56465 258.474 5.18706L258.474 5.18656ZM260.161 5.31025C259.973 5.44546 259.91 5.70737 259.556 5.67232C259.675 5.50956 259.883 5.43345 259.918 5.18656C259.997 5.17632 260.078 5.1953 260.144 5.23997C260.211 5.28464 260.259 5.35197 260.28 5.42944C260.63 5.56465 260.096 5.56064 260.161 5.31025ZM268.138 5.42944C268.605 5.53711 267.739 5.87513 268.138 5.91069C268.085 6.30781 267.472 5.73291 267.533 6.03388C267.087 5.6603 268.312 5.93823 268.138 5.42944ZM269.583 5.54913H269.949C269.949 5.74042 269.891 6.01035 270.069 6.03388C269.779 6.21016 269.748 5.86762 269.583 5.54913Z" fill="#3F6028"/>
<path fill-rule="evenodd" clip-rule="evenodd" d="M270.188 5.79151C270.188 5.91069 270.34 5.88716 270.43 5.91069C270.749 6.14957 269.783 6.03789 270.068 5.54913C270.575 5.54437 271.075 5.66881 271.52 5.91069C271.866 6.11401 270.9 6.01085 270.673 6.03389C270.702 5.90318 270.912 5.94975 270.915 5.79151C270.757 5.67633 270.518 5.74043 270.188 5.79151ZM287.592 9.1758C287.922 9.31101 286.798 9.08766 286.4 9.1758C286.139 8.94494 287.283 9.09917 287.592 9.05611L287.592 9.1758ZM196.594 7.11958C196.035 6.99639 197.445 7.0004 198.041 7.0004H200.221C199.016 7.16265 197.807 7.20371 196.594 7.11958ZM251.093 11.1083C250.978 11.3021 250.773 11.3862 250.613 11.2315H249.523C249.126 11.3237 248.609 11.0848 249.284 11.1083C249.988 11.0362 250.7 11.2275 251.093 11.1083ZM243.726 15.8092C243.841 15.8092 243.818 15.9559 243.846 16.0475C244.243 16.1983 243.938 15.6489 244.331 15.8092V16.2884C244.159 16.1262 243.639 16.2684 243.726 15.8092ZM246.987 15.9439C246.892 16.5483 245.471 16.1827 246.987 15.9439ZM263.787 16.3059C263.529 16.8989 262.113 16.5483 261.731 16.668C261.628 16.2063 262.956 16.6505 263.787 16.3059ZM378.349 16.5483C378.746 16.8653 380.067 16.7952 381.009 16.9104C380.878 16.973 378.558 17.1923 378.349 16.5483ZM194.296 18.2385C195.545 17.8398 198.623 17.9826 200.702 18.0001C200.945 18.0001 203.089 17.975 201.792 18.1193H200.46C198.83 18.3326 196.59 18.1663 194.296 18.2385ZM284.814 18.2385C285.211 17.7242 285.712 18.3211 286.006 18.1193C286.348 18.591 285.291 18.0782 284.814 18.2385ZM127.109 18.2385C127.406 18.2385 127.482 18.4288 127.709 18.4813C127.689 18.6201 127.59 18.5479 127.59 18.4813C127.193 18.4813 126.989 18.6867 126.504 18.6045C126.723 17.7437 126.985 18.8369 127.109 18.2385ZM289.163 18.4813C289.74 18.1704 290.905 18.4813 291.581 18.4813C290.774 18.6436 289.969 18.6436 289.163 18.4813ZM294.842 18.7237C294.842 18.5985 296.035 18.7237 295.569 19.0838C295.45 19.0838 295.473 18.937 295.446 18.8414C295.301 18.9466 295.143 18.9881 294.965 18.9666C294.984 18.8254 294.937 18.7513 294.842 18.7237ZM134.358 19.3262C134.436 19.4263 132.369 19.5786 133.511 19.3262C133.782 19.2146 134.087 19.2146 134.358 19.3262ZM84.3117 20.4159C84.4504 20.4159 84.527 20.3883 84.554 20.2927H86.4871C85.7732 20.4509 85.0384 20.4925 84.3112 20.4159H84.3117ZM43.2395 20.7779C43.3822 20.6077 43.2846 20.7779 43.2395 20.8971C42.8774 20.85 41.6766 21.0163 41.9074 20.7779C42.3502 20.731 42.7967 20.731 43.2395 20.7779ZM44.6868 20.8971C44.2511 21.0458 43.7323 20.6547 43.6011 20.8971C43.1574 20.6668 44.7869 20.4003 44.6868 20.8971ZM221.005 16.0636C222.962 15.2673 225.673 15.9599 227.766 15.7015C226.893 16.6465 223.701 15.8442 222.688 15.9439C222.132 16.0591 221.571 16.1006 221.005 16.0636ZM258.952 16.2063C259.548 16.4527 260.638 15.8092 260.885 16.5678C260.737 16.4331 260.638 16.4607 260.642 16.6875C260.502 16.6675 260.542 16.4682 260.522 16.3255C260.26 16.3059 260.125 16.4256 260.16 16.6875C259.306 16.4762 259.267 16.6875 258.57 16.5678C258.542 16.2574 259.139 16.6029 258.952 16.2063ZM301.61 19.0833C302.05 19.0407 301.518 19.5745 302.214 19.4458C302.214 19.3066 301.995 19.3477 301.853 19.3262C302.042 18.7863 302.504 19.3913 302.576 19.6882C302.091 19.3226 301.164 19.7999 301.005 19.3262C300.71 19.6336 299.053 19.5064 298.711 19.0838C298.591 19.2911 298.376 19.3948 297.987 19.3262C297.948 19.1794 298.333 18.9095 298.349 19.207C298.619 19.1404 298.202 19.0172 298.468 18.8414C298.723 19.2636 299.211 18.6867 299.315 19.207C299.959 18.591 301.449 19.4819 301.61 19.0833Z" fill="#3F6028"/>
</g>
</g>
<defs>
<clipPath id="clip0_17_18">
<rect width="400" height="20" fill="white" transform="translate(0 0.589996)"/>
</clipPath>
<clipPath id="clip1_17_18">
<rect width="400" height="20" fill="white" transform="translate(0 0.589996)"/>
</clipPath>
</defs>
</svg>
